<svg width="154" height="52" viewBox="0 0 154 52" fill="none" xmlns="http://www.w3.org/2000/svg">
<path d="M153.893 25.9519C153.893 29.4038 151.768 32.7099 147.883 35.7328C144 38.7546 138.375 41.4805 131.414 43.7717C117.493 48.3538 98.2548 51.1897 77 51.1897C55.7452 51.1897 36.507 48.3538 22.5862 43.7717C15.6252 41.4805 9.99974 38.7546 6.11672 35.7328C2.23234 32.7099 0.106944 29.4038 0.106944 25.9519C0.106944 22.4999 2.23234 19.1938 6.11672 16.1709C9.99974 13.1492 15.6252 10.4232 22.5862 8.13201C36.507 3.54993 55.7452 0.714061 77 0.714061C98.2548 0.714061 117.493 3.54993 131.414 8.13201C138.375 10.4232 144 13.1492 147.883 16.1709C151.768 19.1938 153.893 22.4999 153.893 25.9519Z" fill="#070411" stroke="url(#paint0_linear_29_216)" stroke-width="0.213889"/>
<defs>
<linearGradient id="paint0_linear_29_216" x1="77" y1="0.607117" x2="77" y2="12.3493" gradientUnits="userSpaceOnUse">
<stop stop-color="#4329A6"/>
<stop offset="1" stop-color="#4329A6" stop-opacity="0"/>
</linearGradient>
</defs>
</svg>
