<svg width="200" height="200" viewBox="0 0 200 200" fill="none" xmlns="http://www.w3.org/2000/svg">
<g filter="url(#filter0_i_36_637)">
<path fill-rule="evenodd" clip-rule="evenodd" d="M33.2334 19.0228C15.2786 19.0228 0.723389 33.578 0.723389 51.5327V117.677C0.723389 135.632 15.2786 150.187 33.2334 150.187H117.41L164.118 180.649C165.448 181.517 167.21 180.562 167.21 178.974V150.187H166.867C184.775 150.132 199.276 135.598 199.276 117.677V51.5328C199.276 33.578 184.721 19.0228 166.766 19.0228H33.2334Z" fill="url(#paint0_radial_36_637)"/>
<path d="M82.7706 99.466C86.0153 99.466 87.6376 97.5096 88.1147 94.3604C88.4965 90.0183 90.0234 87.7279 96.2741 84.1015C102.763 80.2366 106.39 75.2264 106.39 67.9259C106.39 57.1422 97.5147 49.794 84.5838 49.794C74.7544 49.794 67.3107 53.8021 64.3523 60.2914C63.4457 62.1046 63.0163 63.8701 63.0163 65.9219C63.0163 69.1188 64.9726 71.1229 68.265 71.1229C70.8894 71.1229 72.6549 69.93 73.7046 66.9716C75.2315 62.1523 78.7625 59.528 84.0589 59.528C89.9279 59.528 93.9838 63.1543 93.9838 68.3554C93.9838 72.9361 91.9797 75.5604 86.063 79.1391C80.0985 82.6701 77.1401 86.5827 77.1401 92.4995V93.4061C77.1401 96.8893 79.1442 99.466 82.7706 99.466ZM82.866 120.175C86.731 120.175 89.7848 117.168 89.7848 113.399C89.7848 109.629 86.731 106.671 82.866 106.671C79.001 106.671 75.8995 109.629 75.8995 113.399C75.8995 117.168 79.001 120.175 82.866 120.175Z" fill="white"/>
<path d="M124.808 97.1756C128.196 97.1756 130.057 95.0761 130.152 91.5929L130.773 56.331C130.773 55.997 130.82 55.663 130.82 55.4244C130.82 51.7026 128.434 49.4122 124.856 49.4122C121.277 49.4122 118.844 51.7026 118.844 55.4244C118.844 55.663 118.891 55.997 118.891 56.331L119.512 91.5929C119.607 95.0761 121.42 97.1756 124.808 97.1756ZM124.808 120.175C128.721 120.175 131.775 117.168 131.775 113.399C131.775 109.629 128.721 106.671 124.808 106.671C120.943 106.671 117.889 109.629 117.889 113.399C117.889 117.168 120.943 120.175 124.808 120.175Z" fill="white"/>
</g>
<defs>
<filter id="filter0_i_36_637" x="0.723389" y="4.02277" width="198.553" height="176.954" filterUnits="userSpaceOnUse" color-interpolation-filters="sRGB">
<feFlood flood-opacity="0" result="BackgroundImageFix"/>
<feBlend mode="normal" in="SourceGraphic" in2="BackgroundImageFix" result="shape"/>
<feColorMatrix in="SourceAlpha" type="matrix" values="0 0 0 0 0 0 0 0 0 0 0 0 0 0 0 0 0 0 127 0" result="hardAlpha"/>
<feOffset dy="-15"/>
<feGaussianBlur stdDeviation="13"/>
<feComposite in2="hardAlpha" operator="arithmetic" k2="-1" k3="1"/>
<feColorMatrix type="matrix" values="0 0 0 0 0 0 0 0 0 0 0 0 0 0 0 0 0 0 0.1 0"/>
<feBlend mode="normal" in2="shape" result="effect1_innerShadow_36_637"/>
</filter>
<radialGradient id="paint0_radial_36_637" cx="0" cy="0" r="1" gradientUnits="userSpaceOnUse" gradientTransform="translate(55.2053 43.4499) rotate(44.735) scale(145.666 203.233)">
<stop stop-color="#603CED"/>
<stop offset="1" stop-color="#452BAB"/>
</radialGradient>
</defs>
</svg>
