<svg width="512" height="512" viewBox="0 0 512 512" fill="none" xmlns="http://www.w3.org/2000/svg">
<g filter="url(#filter0_i_828_23164)">
<path fill-rule="evenodd" clip-rule="evenodd" d="M440.147 48.6984C478.807 48.6984 510.147 80.0385 510.147 118.698V314.478C510.147 353.138 478.807 384.478 440.147 384.478H211.428L104.042 454.515C95.3951 460.154 83.9406 453.95 83.9406 443.626V384.478H71.8516C33.1916 384.478 1.85156 353.138 1.85156 314.478V118.698C1.85156 80.0384 33.1917 48.6984 71.8516 48.6984H440.147Z" fill="url(#paint0_radial_828_23164)"/>
<path d="M211.892 254.633C220.199 254.633 224.352 249.625 225.573 241.563C226.551 230.447 230.459 224.584 246.461 215.3C263.074 205.406 272.358 192.58 272.358 173.89C272.358 146.284 249.637 127.473 216.534 127.473C191.371 127.473 172.315 137.733 164.742 154.346C162.421 158.988 161.321 163.507 161.321 168.76C161.321 176.944 166.33 182.075 174.758 182.075C181.476 182.075 185.996 179.021 188.683 171.447C192.592 159.11 201.631 152.392 215.19 152.392C230.215 152.392 240.598 161.675 240.598 174.99C240.598 186.716 235.468 193.435 220.321 202.596C205.052 211.635 197.478 221.652 197.478 236.799V239.12C197.478 248.037 202.609 254.633 211.892 254.633ZM212.137 307.647C222.031 307.647 229.849 299.951 229.849 290.301C229.849 280.651 222.031 273.078 212.137 273.078C202.242 273.078 194.302 280.651 194.302 290.301C194.302 299.951 202.242 307.647 212.137 307.647Z" fill="white"/>
<path d="M319.508 248.77C328.181 248.77 332.945 243.395 333.189 234.478L334.777 144.207C334.777 143.352 334.899 142.497 334.899 141.887C334.899 132.359 328.792 126.495 319.63 126.495C310.469 126.495 304.239 132.359 304.239 141.887C304.239 142.497 304.361 143.352 304.361 144.207L305.949 234.478C306.194 243.395 310.835 248.77 319.508 248.77ZM319.508 307.647C329.525 307.647 337.342 299.951 337.342 290.301C337.342 280.651 329.525 273.078 319.508 273.078C309.614 273.078 301.796 280.651 301.796 290.301C301.796 299.951 309.614 307.647 319.508 307.647Z" fill="white"/>
</g>
<defs>
<filter id="filter0_i_828_23164" x="1.85156" y="33.6984" width="508.295" height="422.949" filterUnits="userSpaceOnUse" color-interpolation-filters="sRGB">
<feFlood flood-opacity="0" result="BackgroundImageFix"/>
<feBlend mode="normal" in="SourceGraphic" in2="BackgroundImageFix" result="shape"/>
<feColorMatrix in="SourceAlpha" type="matrix" values="0 0 0 0 0 0 0 0 0 0 0 0 0 0 0 0 0 0 127 0" result="hardAlpha"/>
<feOffset dy="-15"/>
<feGaussianBlur stdDeviation="13"/>
<feComposite in2="hardAlpha" operator="arithmetic" k2="-1" k3="1"/>
<feColorMatrix type="matrix" values="0 0 0 0 0 0 0 0 0 0 0 0 0 0 0 0 0 0 0.1 0"/>
<feBlend mode="normal" in2="shape" result="effect1_innerShadow_828_23164"/>
</filter>
<radialGradient id="paint0_radial_828_23164" cx="0" cy="0" r="1" gradientUnits="userSpaceOnUse" gradientTransform="translate(141.325 110.228) rotate(44.2715) scale(369.953 516.013)">
<stop stop-color="#603CED"/>
<stop offset="1" stop-color="#452BAB"/>
</radialGradient>
</defs>
</svg>
