<svg width="207" height="204" viewBox="0 0 207 204" fill="none" xmlns="http://www.w3.org/2000/svg">
<path d="M7.9548 64.9774C7.12638 64.9774 6.4548 65.649 6.4548 66.4774C6.4548 67.3058 7.12638 67.9774 7.9548 67.9774V64.9774ZM199.077 67.9774C199.905 67.9774 200.577 67.3058 200.577 66.4774C200.577 65.649 199.905 64.9774 199.077 64.9774V67.9774ZM7.9548 132.556C7.12638 132.556 6.4548 133.228 6.4548 134.056C6.4548 134.885 7.12638 135.556 7.9548 135.556V132.556ZM199.077 135.556C199.905 135.556 200.577 134.885 200.577 134.056C200.577 133.228 199.905 132.556 199.077 132.556V135.556ZM203.385 100.267C203.385 155.423 158.672 200.136 103.516 200.136V203.136C160.329 203.136 206.385 157.08 206.385 100.267H203.385ZM103.516 200.136C48.36 200.136 3.64722 155.423 3.64722 100.267H0.647217C0.647217 157.08 46.7031 203.136 103.516 203.136V200.136ZM3.64722 100.267C3.64722 45.1642 48.3057 3.13551 103.516 3.13551V0.135506C46.7574 0.135506 0.647217 43.4008 0.647217 100.267H3.64722ZM103.516 3.13551C158.726 3.13551 203.385 45.1642 203.385 100.267H206.385C206.385 43.4008 160.274 0.135506 103.516 0.135506V3.13551ZM7.9548 67.9774H199.077V64.9774H7.9548V67.9774ZM7.9548 135.556H199.077V132.556H7.9548V135.556ZM144.253 103.002C144.253 130.083 139.549 154.529 132.003 172.149C128.229 180.961 123.774 187.997 118.902 192.808C114.038 197.612 108.84 200.125 103.516 200.125V203.125C109.855 203.125 115.769 200.119 121.011 194.942C126.246 189.772 130.892 182.365 134.761 173.33C142.502 155.255 147.253 130.389 147.253 103.002H144.253ZM103.516 200.125C98.1919 200.125 92.9941 197.612 88.1294 192.808C83.2584 187.997 78.8029 180.961 75.0288 172.149C67.4828 154.529 62.779 130.083 62.779 103.002H59.779C59.779 130.389 64.5302 155.255 72.271 173.33C76.1403 182.365 80.7861 189.772 86.0214 194.942C91.263 200.119 97.1766 203.125 103.516 203.125V200.125ZM62.779 103.002C62.779 75.9211 67.4829 50.7809 75.0366 32.4652C78.815 23.3035 83.2767 15.9221 88.1559 10.8549C93.0327 5.79026 98.2233 3.13551 103.516 3.13551V0.135506C97.1452 0.135506 91.2244 3.34307 85.9949 8.77402C80.7678 14.2024 76.1282 21.9499 72.2632 31.3214C64.5302 50.0719 59.779 75.615 59.779 103.002H62.779ZM103.516 3.13551C108.809 3.13551 113.999 5.79026 118.876 10.8549C123.755 15.9221 128.217 23.3035 131.995 32.4652C139.549 50.7809 144.253 75.9211 144.253 103.002H147.253C147.253 75.615 142.502 50.0719 134.769 31.3214C130.904 21.9499 126.264 14.2024 121.037 8.77402C115.807 3.34307 109.887 0.135506 103.516 0.135506V3.13551Z" fill="url(#paint0_linear_19_691)"/>
<defs>
<linearGradient id="paint0_linear_19_691" x1="103.516" y1="1.6355" x2="103.516" y2="160.921" gradientUnits="userSpaceOnUse">
<stop offset="0.00801793" stop-color="#4329A6" stop-opacity="0.25"/>
<stop offset="1" stop-color="#4329A6" stop-opacity="0"/>
</linearGradient>
</defs>
</svg>
